<svg width="56" height="56" viewBox="0 0 56 56" fill="none" xmlns="http://www.w3.org/2000/svg">
<path d="M27.1605 1.29732C27.5545 0.688381 28.4455 0.68838 28.8395 1.29732L33.6153 8.67722C33.8725 9.07462 34.3731 9.23727 34.8147 9.06693L43.0162 5.90361C43.693 5.64259 44.4138 6.16628 44.3746 6.89055L43.9005 15.6682C43.875 16.1408 44.1844 16.5666 44.6418 16.6884L53.1363 18.95C53.8372 19.1366 54.1126 19.9839 53.6552 20.5469L48.1123 27.3694C47.8138 27.7368 47.8138 28.2632 48.1123 28.6306L53.6552 35.4531C54.1126 36.0161 53.8372 36.8634 53.1363 37.05L44.6418 39.3116C44.1844 39.4334 43.875 39.8592 43.9005 40.3318L44.3746 49.1095C44.4138 49.8337 43.693 50.3574 43.0162 50.0964L34.8147 46.9331C34.3731 46.7627 33.8725 46.9254 33.6153 47.3228L28.8395 54.7027C28.4455 55.3116 27.5545 55.3116 27.1605 54.7027L22.3847 47.3228C22.1275 46.9254 21.6269 46.7627 21.1853 46.9331L12.9838 50.0964C12.307 50.3574 11.5862 49.8337 11.6254 49.1095L12.0995 40.3318C12.125 39.8592 11.8156 39.4334 11.3582 39.3116L2.86367 37.05C2.16277 36.8634 1.88745 36.0161 2.34481 35.4531L7.88771 28.6306C8.18619 28.2632 8.18619 27.7368 7.88771 27.3694L2.34481 20.5469C1.88745 19.9839 2.16276 19.1366 2.86367 18.95L11.3582 16.6884C11.8156 16.5666 12.125 16.1408 12.0995 15.6682L11.6254 6.89055C11.5862 6.16628 12.307 5.64259 12.9838 5.90361L21.1853 9.06693C21.6269 9.23727 22.1275 9.07462 22.3847 8.67722L27.1605 1.29732Z" fill="#EAFF62"/>
<path d="M20 29.8333L25.835 35.5799C26.3052 36.043 27.0872 35.9316 27.4094 35.3557L36 20" stroke="white" stroke-width="3" stroke-linecap="round"/>
</svg>
